<svg width="63" height="63" viewBox="0 0 63 63" fill="none" xmlns="http://www.w3.org/2000/svg">
<path d="M25.398 18.374C25.398 18.374 19 25.261 19 37.415C19 47.616 23.005 52 26.677 52C28.383 52 33.927 50.785 39.472 41.467C45.879 30.7 45.017 25.667 45.017 25.667L25.398 18.374Z" fill="#FE900D"/>
<path d="M40.951 17.205C38.024 17.205 36.561 17.906 36.561 17.906C34.839 14.593 33.505 13 29.201 13C21.453 13 19 18.67 19 20.327C19 20.904 20.076 21.41 22.659 21.41C25.242 21.41 28.513 20.709 28.513 20.709C28.019 21.656 27.781 22.811 27.781 24.213C27.781 27.717 29.976 30.52 32.903 30.52C37.293 30.52 39.488 25.615 39.488 25.615C39.488 25.615 44.61 31.221 46.418 31.221C48.14 31.221 49 28.737 49 25.423C49 22.938 46.977 17.205 40.951 17.205Z" fill="#4AAE52"/>
<path d="M36 19.742C35.865 19.742 35.729 19.715 35.598 19.657C35.093 19.434 34.863 18.844 35.085 18.339C35.894 16.502 38.716 12.075 41.58 10.168C42.039 9.85997 42.66 9.98597 42.966 10.446C43.273 10.905 43.148 11.526 42.688 11.832C40.148 13.524 37.53 17.749 36.916 19.145C36.75 19.519 36.384 19.742 36 19.742Z" fill="#4AAE52"/>
<path d="M22.999 40C22.496 40 22.062 39.62 22.006 39.108C21.689 36.191 22.038 33.029 23.043 29.71C23.203 29.181 23.762 28.881 24.29 29.043C24.819 29.203 25.118 29.761 24.957 30.29C24.031 33.35 23.707 36.245 23.994 38.892C24.054 39.442 23.657 39.935 23.108 39.995C23.071 39.998 23.035 40 22.999 40Z" fill="#FDC82E"/>
<rect x="0.5" y="0.5" width="62" height="62" rx="19.5" stroke="url(#paint0_linear_77_262)"/>
<defs>
<linearGradient id="paint0_linear_77_262" x1="31.5" y1="0" x2="31.5" y2="63" gradientUnits="userSpaceOnUse">
<stop stop-color="white"/>
<stop offset="1" stop-color="white" stop-opacity="0"/>
</linearGradient>
</defs>
</svg>
